<?xml version="1.0" standalone="no"?>
<!DOCTYPE svg PUBLIC "-//W3C//DTD SVG 20010904//EN"
 "http://www.w3.org/TR/2001/REC-SVG-20010904/DTD/svg10.dtd">
<svg version="1.0" xmlns="http://www.w3.org/2000/svg"
 width="920.000000pt" height="695.000000pt" viewBox="0 0 920.000000 695.000000"
 preserveAspectRatio="xMidYMid meet">

<g transform="translate(0.000000,695.000000) scale(0.100000,-0.100000)"
fill="#000000" stroke="none">
<path d="M3450 6393 c-315 -30 -560 -81 -905 -188 -368 -114 -886 -340 -1325
-576 l-165 -89 5 -120 c5 -107 8 -122 29 -144 l23 -25 162 81 c197 99 396 189
396 179 0 -3 -95 -259 -211 -566 -115 -308 -231 -616 -256 -685 -25 -69 -50
-130 -54 -136 -5 -5 -56 -30 -113 -53 -98 -40 -107 -46 -137 -93 -28 -44 -44
-55 -140 -104 l-109 -54 -92 -188 -93 -187 -157 -80 c-144 -74 -157 -83 -167
-114 -6 -19 -9 -36 -7 -38 2 -2 55 24 117 58 155 83 732 372 915 457 554 258
1010 403 1429 453 126 15 423 15 535 0 220 -30 385 -73 595 -156 135 -53 333
-151 355 -175 3 -3 28 -19 55 -34 28 -16 113 -73 190 -126 293 -205 495 -326
749 -449 260 -126 647 -261 936 -326 779 -174 1550 -177 2465 -9 298 54 336
64 346 92 5 13 9 27 9 31 0 4 -64 -6 -142 -24 -95 -21 -144 -28 -146 -21 -1 6
17 70 42 141 l44 130 78 19 c44 10 81 21 84 23 10 9 -46 43 -70 43 -14 0 -75
-11 -135 -25 -116 -26 -457 -86 -462 -81 -2 1 10 36 27 77 16 41 117 308 224
594 254 679 276 738 287 751 4 5 56 16 114 23 58 7 105 16 105 20 0 4 -13 19
-28 34 l-28 27 -107 -16 c-59 -9 -109 -15 -112 -13 -8 9 83 253 96 260 8 4 69
16 137 26 131 20 132 20 112 -32 -13 -33 -14 -34 103 45 83 56 115 86 105 95
-2 2 -66 -8 -143 -21 -571 -98 -1060 -136 -1505 -115 -790 38 -1406 207 -1907
524 -132 84 -167 111 -268 202 -454 411 -902 624 -1419 674 -100 10 -381 13
-466 4z m390 -60 c-1 -5 -29 -68 -63 -141 l-62 -133 -138 -2 c-75 -1 -137 0
-137 2 0 2 30 66 67 142 l66 139 134 0 c73 0 133 -3 133 -7z m-510 -20 c-1 -5
-29 -68 -63 -142 l-62 -135 -118 -17 c-65 -9 -129 -20 -143 -23 -13 -4 -24 -2
-24 3 0 13 116 261 127 271 8 8 217 48 261 49 12 1 22 -2 22 -6z m883 -34 c48
-12 87 -24 87 -28 0 -5 -27 -64 -59 -133 l-60 -125 -93 18 c-51 10 -105 19
-120 19 -15 0 -29 4 -32 9 -3 5 22 68 56 140 l62 132 36 -6 c19 -3 74 -15 123
-26z m-1436 -81 c-5 -13 -109 -251 -112 -255 -2 -4 -310 -91 -312 -89 -2 2 25
62 60 135 l62 132 130 40 c72 23 135 42 140 44 23 8 37 4 32 -7z m1911 -89
c56 -28 102 -54 102 -57 -1 -17 -111 -237 -118 -235 -4 1 -52 22 -107 47 -55
25 -104 47 -108 49 -11 3 105 247 118 247 5 0 56 -23 113 -51z m-2551 -221
c-33 -75 -61 -126 -73 -131 -46 -21 -309 -124 -311 -122 -2 1 23 56 54 123
l58 122 90 39 c150 65 230 98 233 95 2 -1 -21 -58 -51 -126z m2086 30 c31 -7
57 -15 57 -18 0 -4 -34 -96 -75 -206 -42 -109 -166 -439 -275 -733 -110 -294
-202 -537 -205 -539 -3 -3 -58 11 -122 30 -174 53 -207 62 -215 60 -5 -1 -8 3
-8 9 0 6 8 8 19 4 23 -7 23 21 0 36 -10 7 -6 8 14 5 15 -3 27 -1 27 4 0 5 3
17 6 27 5 17 5 17 -9 0 -13 -15 -15 -15 -20 -2 -4 8 -1 14 6 12 7 -1 11 4 9
11 -1 8 2 11 7 8 11 -7 24 41 15 56 -4 7 -3 8 4 4 7 -4 12 -14 12 -22 0 -8 4
-14 9 -14 11 0 11 -49 -1 -56 -5 -3 -7 6 -4 20 3 14 0 28 -5 31 -5 4 -9 -4 -9
-17 1 -13 -2 -38 -6 -56 -5 -25 -9 -30 -19 -22 -18 15 -14 -15 4 -33 7 -6 11
-7 9 -2 -2 6 2 10 7 10 6 0 9 -4 7 -10 -2 -5 0 -6 4 -2 11 11 14 38 3 31 -5
-3 -9 7 -9 21 0 15 4 24 10 20 6 -4 7 -12 4 -18 -4 -7 -3 -8 2 -4 5 5 9 13 9
18 0 5 5 9 10 9 6 0 10 -4 10 -9 0 -5 3 -12 7 -16 9 -10 4 16 -8 40 -6 11 -9
40 -7 63 2 26 0 41 -6 38 -5 -3 -7 -16 -5 -29 2 -12 1 -15 -2 -7 -4 8 -12 22
-18 30 -5 8 -6 12 -2 8 13 -11 36 11 29 28 -3 8 0 14 7 14 6 0 9 -4 5 -9 -3
-5 0 -13 6 -17 9 -5 10 2 6 24 -4 17 -2 34 3 37 5 3 7 14 5 25 -2 11 1 19 8
17 7 -1 11 8 11 20 -1 13 3 20 7 17 5 -3 9 3 9 12 0 10 3 15 6 11 4 -3 4 -12
2 -19 -3 -7 -5 -16 -4 -19 0 -4 -7 -16 -17 -27 -10 -11 -14 -23 -9 -26 11 -7
46 59 47 89 1 11 -2 25 -7 31 -4 6 -2 11 7 11 8 0 12 -4 9 -8 -2 -4 0 -10 6
-14 5 -3 10 3 10 14 0 11 5 23 10 26 6 4 8 11 4 16 -3 6 -12 3 -20 -8 -13 -16
-13 -15 -2 10 7 17 14 23 18 16 10 -15 17 1 15 33 -1 15 1 27 4 26 18 -2 22 4
12 16 -9 11 -7 13 10 12 12 0 24 5 27 13 2 8 0 11 -5 8 -5 -3 -10 0 -10 8 0 8
3 13 5 10 3 -3 11 0 19 6 10 9 11 15 1 28 -10 13 -10 14 2 4 24 -21 34 -14 14
9 -10 12 -14 18 -7 15 6 -4 14 -3 18 3 3 5 1 10 -6 10 -7 0 -9 3 -6 6 4 4 13
1 22 -6 13 -11 15 -10 12 6 -1 11 -7 25 -11 33 -6 9 -5 12 1 8 17 -10 44 38
30 52 -8 8 -8 11 1 11 11 0 16 -13 13 -33 -1 -5 4 -5 10 -2 7 5 6 -1 -2 -16
-7 -13 -12 -28 -11 -32 1 -5 -2 -6 -7 -3 -5 4 -13 1 -17 -5 -4 -7 -3 -9 4 -5
19 11 19 -8 0 -26 -10 -10 -18 -13 -18 -7 0 5 -5 7 -11 3 -8 -4 -8 -9 -1 -13
12 -7 23 -96 14 -106 -10 -10 -11 -35 -1 -29 5 3 7 9 4 14 -3 5 -1 11 4 14 5
3 7 29 4 57 -2 28 0 49 4 46 5 -3 15 -1 23 5 12 8 12 9 -2 4 -21 -6 -24 9 -4
17 17 7 39 -16 28 -29 -4 -5 -3 -5 2 -1 14 11 16 37 3 34 -6 -1 -11 6 -12 16
0 9 5 16 10 15 6 -2 9 -7 7 -11 -1 -5 2 -5 8 -2 8 5 6 13 -4 24 -25 27 -19 37
7 13 17 -17 24 -18 24 -8 0 8 -4 14 -8 13 -4 -1 -7 3 -7 8 0 6 4 9 8 8 4 -1
16 8 26 20 l19 22 -22 -18 c-14 -13 -23 -15 -28 -7 -5 8 -11 8 -21 -1 -10 -8
-14 -8 -14 0 0 19 -2 25 -12 45 -8 14 -7 17 3 11 9 -6 11 -3 6 8 -4 10 -2 16
6 14 7 -1 11 4 9 11 -1 8 1 11 6 8 5 -3 14 6 21 20 14 31 14 37 -1 28 -7 -5
-8 -3 -3 6 6 10 11 9 23 -6 14 -18 14 -18 9 5 -6 26 9 65 22 56 10 -6 22 31
13 40 -11 11 -10 34 1 32 7 -1 11 8 11 21 -1 12 3 22 8 22 6 0 8 -7 5 -15 -4
-8 -2 -17 3 -20 6 -4 11 -1 11 4 1 6 2 17 3 24 1 6 -2 21 -7 32 -6 15 -3 14
12 -5 11 -14 18 -26 16 -29 -3 -2 0 -12 5 -21 9 -18 32 -21 46 -7 4 3 -3 5
-14 2 -20 -3 -37 17 -25 29 10 10 25 7 19 -3 -7 -11 20 -8 31 3 4 4 1 6 -7 4
-9 -2 -14 3 -11 12 2 8 4 20 6 25 6 26 18 44 26 39 5 -3 6 3 2 12 -4 12 -3 15
6 10 6 -4 10 -4 9 1 -1 4 3 18 10 30 7 12 12 26 11 30 -1 4 -1 17 0 28 1 16 3
17 10 6 5 -8 8 -22 6 -32 -2 -10 0 -21 4 -24 8 -4 8 34 1 60 -5 15 11 46 20
40 5 -3 11 -1 15 5 4 6 12 7 18 3 8 -4 7 -1 -1 9 -9 12 -10 18 -2 23 6 4 9 13
6 21 -3 8 -2 14 3 14 15 0 20 -13 11 -30 -7 -13 -5 -22 8 -31 15 -12 16 -12 5
2 -10 12 -9 20 3 37 9 13 12 21 7 20 -4 -1 -17 3 -28 9 -11 5 -32 10 -46 9
-15 -1 -26 4 -26 12 0 14 21 12 130 -10z m-78 -33 c-1 -11 -4 -21 -5 -22 -1
-2 -3 -7 -4 -12 0 -5 -5 -13 -10 -18 -5 -5 -6 8 -3 30 3 20 2 37 -2 37 -3 0
-8 -15 -9 -32 -1 -18 -12 -46 -23 -61 -11 -15 -21 -38 -21 -50 -1 -12 -15 -44
-32 -70 -16 -26 -31 -55 -32 -64 -4 -28 -28 -34 -41 -10 -17 30 -16 35 6 54
13 10 18 25 15 42 -3 19 -2 22 5 11 5 -8 7 -18 5 -22 -6 -10 10 -11 19 -1 4 3
2 12 -4 19 -7 8 -7 14 1 19 8 5 8 11 0 20 -9 11 -8 13 8 10 17 -3 19 1 17 31
-2 19 1 32 6 28 5 -3 12 2 15 11 6 14 9 14 16 3 7 -9 8 -7 5 10 -3 12 -3 22
-1 22 3 0 9 -10 15 -22 9 -22 9 -21 6 5 -3 15 1 27 7 28 6 0 5 3 -3 6 -11 4
-11 7 0 13 23 15 46 7 44 -15z m989 -68 l94 -78 -55 -117 c-30 -64 -56 -118
-58 -120 -7 -7 -200 162 -197 172 8 33 107 226 114 224 4 -2 50 -38 102 -81z
m-543 -25 c106 -48 222 -125 361 -239 71 -60 169 -138 217 -176 47 -37 85 -73
85 -80 -1 -6 -52 -145 -114 -307 -61 -162 -141 -374 -176 -470 -36 -96 -101
-267 -144 -380 -42 -113 -82 -218 -88 -235 -5 -16 -14 -29 -20 -28 -5 1 -81
50 -168 109 -208 140 -311 199 -509 296 -91 44 -165 83 -165 87 0 3 14 42 31
86 17 44 115 305 219 580 104 275 216 573 250 662 l62 162 47 -19 c25 -10 76
-32 112 -48z m-2028 21 c-7 -2 -19 -2 -25 0 -7 3 -2 5 12 5 14 0 19 -2 13 -5z
m-86 -20 c-9 -2 -15 -8 -12 -13 3 -4 -3 -7 -13 -6 -9 0 -21 -9 -27 -21 -5 -13
-13 -23 -17 -23 -5 0 -8 -9 -8 -21 0 -11 5 -17 10 -14 6 4 7 11 4 17 -4 7 -2
8 5 4 8 -6 9 -12 2 -20 -6 -7 -9 -15 -6 -17 2 -3 -6 -6 -18 -6 -17 -2 -19 0
-7 7 8 5 10 10 4 10 -8 0 -10 14 -8 38 2 22 0 32 -5 24 -4 -8 -7 -33 -6 -57 2
-28 -1 -44 -8 -42 -14 3 -17 -44 -3 -61 5 -7 5 -12 0 -10 -5 2 -9 -1 -9 -7 0
-5 4 -9 8 -7 5 1 6 -2 2 -8 -5 -8 -11 -8 -20 0 -20 17 -37 3 -25 -20 7 -13 6
-21 -4 -29 -15 -13 -16 -28 -1 -51 7 -12 6 -13 -7 -3 -8 7 -19 9 -24 5 -4 -4
-2 1 5 11 9 11 10 17 2 17 -6 0 -12 -4 -12 -10 -1 -5 -3 -14 -4 -20 -1 -5 -3
-15 -4 -22 -1 -16 -12 -4 -15 19 -2 10 1 24 7 32 14 17 18 43 6 35 -5 -3 -7
-9 -4 -14 3 -4 -2 -13 -9 -20 -9 -6 -12 -21 -9 -33 6 -26 6 -55 0 -82 -2 -11
-1 -25 4 -31 5 -7 3 -11 -5 -11 -8 0 -13 8 -11 18 2 10 -3 20 -11 23 -9 3 -12
11 -8 17 5 8 9 8 14 -1 5 -8 9 -8 13 3 6 16 -9 17 -31 3 -10 -6 -11 -11 -3
-19 16 -16 13 -38 -6 -54 -10 -8 -12 -11 -4 -7 9 4 12 3 7 -4 -3 -6 -2 -13 4
-17 5 -3 10 -12 10 -18 0 -7 -5 -4 -11 6 -6 9 -15 15 -20 11 -6 -4 -4 -13 6
-24 11 -12 13 -20 5 -25 -5 -3 -8 -10 -5 -14 2 -5 -4 -16 -15 -26 -11 -10 -17
-22 -13 -28 4 -6 1 -7 -6 -2 -9 5 -7 13 10 31 12 13 19 24 15 24 -5 0 -3 6 3
14 10 12 8 17 -9 26 -17 9 -19 14 -9 26 6 8 8 14 4 14 -4 0 -2 6 4 14 8 10 9
16 1 21 -6 4 -10 3 -9 -2 1 -4 0 -11 -1 -15 -1 -5 -3 -14 -4 -20 -1 -7 -8 -12
-16 -10 -12 3 -12 1 -3 -9 8 -8 9 -16 3 -24 -7 -9 -5 -16 5 -25 14 -12 12 -17
-17 -49 -18 -19 -26 -29 -16 -23 13 11 18 10 24 0 4 -7 4 -10 -1 -6 -4 4 -14
0 -22 -8 -14 -14 -38 -10 -29 5 3 4 -1 8 -9 8 -13 0 -12 -3 1 -18 9 -10 22
-16 28 -12 6 4 3 -3 -7 -14 -9 -11 -14 -23 -10 -28 5 -4 2 -5 -4 -1 -8 4 -13
1 -13 -9 0 -9 4 -14 8 -11 5 3 9 -1 9 -9 0 -13 -3 -13 -18 1 -11 10 -19 12
-24 4 -3 -5 -11 -7 -17 -4 -7 4 -8 2 -4 -5 5 -8 12 -9 20 -2 8 7 16 4 26 -12
12 -20 12 -21 -3 -8 -20 16 -23 2 -4 -19 6 -8 3 -7 -9 3 -19 16 -23 16 -34 2
-7 -8 -9 -15 -4 -15 4 0 3 -5 -3 -11 -12 -12 -5 -61 8 -53 5 3 4 15 -2 27 -10
21 -10 21 5 3 10 -12 12 -24 7 -29 -5 -5 -7 -17 -4 -26 3 -9 -3 -5 -13 9 -10
14 -18 29 -16 33 1 5 -3 5 -9 2 -7 -5 -7 -11 -1 -17 6 -6 8 -17 5 -26 -5 -11
-3 -13 7 -7 9 5 11 4 6 -4 -6 -9 -11 -9 -22 0 -7 6 -12 15 -9 19 3 5 1 11 -4
14 -5 4 -8 -2 -6 -11 1 -10 -2 -23 -7 -30 -6 -7 -5 -14 3 -19 7 -4 9 -3 5 4
-3 6 -2 13 3 16 5 4 9 -7 9 -24 -1 -17 -4 -28 -7 -23 -16 22 -39 34 -46 23 -4
-6 -3 -9 2 -8 4 2 10 -1 11 -7 2 -5 8 -15 13 -21 6 -7 2 -17 -11 -29 -11 -10
-20 -24 -20 -32 0 -8 -5 -11 -10 -8 -6 4 -8 10 -5 15 3 5 2 11 -3 14 -4 2 -8
-6 -8 -19 0 -13 4 -21 8 -19 4 3 8 0 8 -5 0 -11 -15 -15 -35 -11 -5 1 -1 -8 9
-19 11 -12 15 -21 11 -21 -4 0 0 -10 11 -22 19 -23 19 -23 -2 -5 -11 9 -25 14
-29 10 -5 -5 -3 1 5 12 14 18 14 19 -2 7 -10 -8 -14 -20 -11 -30 6 -15 5 -15
-10 -3 -17 13 -16 15 0 35 l18 21 -23 -19 -22 -19 21 -23 20 -22 -29 -20 c-23
-17 -32 -19 -43 -9 -7 7 -5 2 5 -10 12 -14 16 -29 11 -45 -6 -22 -5 -22 9 -4
11 14 13 23 5 32 -10 13 6 32 18 20 4 -3 1 -6 -6 -6 -7 0 -9 -5 -6 -10 5 -8
11 -7 21 1 7 6 12 15 9 19 -3 4 2 13 10 20 7 6 11 19 8 28 -4 14 -3 15 6 2 7
-11 6 -19 -6 -32 -9 -10 -13 -18 -9 -18 4 0 -6 -17 -23 -37 -16 -20 -28 -41
-25 -47 3 -6 -8 5 -26 24 l-31 35 21 -38 c11 -21 17 -36 13 -34 -10 6 -34 -19
-26 -27 3 -3 12 -1 19 5 8 7 14 7 19 -1 4 -6 1 -9 -7 -8 -7 2 -12 -3 -10 -10
1 -9 -5 -8 -23 4 -14 9 -25 15 -26 13 -1 -2 -2 -23 -3 -47 -3 -52 -16 -68 -44
-53 -16 9 -20 8 -18 -4 1 -8 5 -18 9 -21 4 -4 1 -14 -6 -23 -11 -14 -10 -15 8
-1 11 8 22 18 25 21 3 4 11 1 18 -7 11 -12 10 -14 -6 -14 -10 0 -33 -7 -50
-16 -18 -8 -36 -13 -41 -10 -5 4 -11 2 -13 -3 -1 -5 -67 -33 -146 -64 -107
-41 -142 -51 -137 -38 4 9 108 286 232 616 124 330 239 637 256 683 l32 82
100 39 c55 22 183 65 285 96 102 31 190 58 195 60 6 2 17 3 25 3 10 0 9 -2 -3
-5z m-926 -95 c-10 -24 -35 -78 -54 -120 l-35 -76 -176 -89 c-97 -49 -176 -87
-176 -84 0 3 23 56 52 118 l53 111 170 90 c94 49 173 90 177 91 4 0 -1 -18
-11 -41z m859 -53 c-5 -7 -9 -14 -7 -16 1 -2 0 -3 -2 -1 -11 7 -7 29 5 29 9 0
11 -4 4 -12z m-35 -4 c3 -5 2 -12 -3 -15 -5 -3 -9 1 -9 9 0 17 3 19 12 6z m12
-36 c0 -8 -4 -12 -9 -9 -5 3 -6 10 -3 15 9 13 12 11 12 -6z m3169 -121 c54
-36 101 -68 103 -70 5 -4 -97 -214 -105 -214 -8 0 -112 62 -171 102 l-41 28
51 110 c29 60 55 110 58 110 3 0 50 -30 105 -66z m-1668 11 c-3 -3 -9 2 -12
12 -6 14 -5 15 5 6 7 -7 10 -15 7 -18z m-1602 -77 c-9 -12 -16 -19 -16 -15 0
11 24 47 28 42 2 -2 -3 -14 -12 -27z m3777 -201 c11 -3 -89 -217 -102 -217
-17 0 -221 92 -221 100 0 5 22 55 49 113 l50 106 108 -49 c59 -28 112 -51 116
-53z m-3889 32 c-3 -5 -10 -7 -15 -3 -5 3 -7 10 -3 15 3 5 10 7 15 3 5 -3 7
-10 3 -15z m3306 -85 c221 -133 462 -244 717 -329 l142 -47 -21 -51 c-11 -29
-46 -122 -78 -207 -139 -372 -409 -1088 -423 -1122 l-16 -37 -113 38 c-194 66
-416 159 -608 258 -102 52 -196 102 -209 112 l-23 18 257 684 c142 376 262
696 267 712 6 15 11 27 12 27 2 0 45 -25 96 -56z m-3334 -34 c0 -12 -4 -16 -9
-11 -5 5 -6 14 -3 20 10 15 12 14 12 -9z m4252 -26 c56 -16 102 -34 102 -40 0
-6 -24 -58 -52 -116 l-53 -106 -110 35 c-60 19 -114 38 -118 42 -4 4 15 56 43
115 40 86 54 107 68 103 9 -2 63 -17 120 -33z m-4326 -108 c9 6 9 3 -1 -9 -16
-20 -22 -22 -18 -4 1 6 -3 11 -10 10 -9 -2 -10 11 -3 37 1 3 5 -5 11 -18 6
-15 13 -21 21 -16z m4773 4 c59 -11 110 -22 113 -24 3 -4 -93 -222 -103 -234
-4 -4 -211 37 -236 46 -15 6 -10 21 36 120 30 63 60 112 67 112 8 0 63 -9 123
-20z m1595 -50 c0 -9 -88 -241 -94 -247 -6 -6 -259 -24 -264 -18 -3 2 17 61
44 129 l48 124 106 9 c149 14 160 14 160 3z m-1107 -9 c54 -5 101 -11 103 -14
9 -9 -105 -242 -118 -242 -55 1 -227 18 -236 24 -9 5 4 41 43 124 63 133 41
122 208 108z m604 -23 c-3 -7 -29 -66 -57 -130 l-52 -118 -135 0 c-104 0 -134
3 -130 13 2 6 28 64 56 127 l51 115 136 3 c107 2 135 0 131 -10z m-5956 -101
c-10 -9 -11 -8 -5 6 3 10 9 15 12 12 3 -3 0 -11 -7 -18z m-25 -29 c-1 -7 -5
-19 -9 -25 -5 -7 -5 -19 -1 -25 5 -10 4 -10 -6 -1 -7 7 -9 17 -4 25 5 7 9 16
10 21 3 14 4 17 8 17 2 0 3 -6 2 -12z m4720 -83 c200 -40 407 -69 575 -81 54
-4 99 -10 99 -14 0 -3 -24 -71 -54 -151 -149 -400 -439 -1171 -458 -1218 l-21
-54 -90 7 c-180 12 -521 70 -698 117 l-76 20 263 699 c144 385 265 704 268
709 4 6 18 6 39 0 17 -5 87 -20 153 -34z m-4747 21 c9 -11 9 -16 0 -22 -7 -4
-9 -3 -5 4 3 6 -2 15 -11 21 -10 6 -13 11 -7 11 6 0 17 -6 23 -14z m6546 -103
c-4 -10 -40 -106 -80 -213 -40 -107 -152 -404 -248 -660 -96 -256 -180 -482
-186 -502 -7 -21 -13 -38 -14 -38 -1 0 -69 -7 -152 -16 -82 -8 -300 -18 -484
-21 -325 -6 -334 -5 -327 13 16 42 480 1274 506 1343 l28 75 143 -3 c145 -2
541 14 679 28 130 14 143 13 135 -6z m-5525 -135 c-1 -7 -26 -62 -58 -123
l-57 -110 -139 -7 c-77 -4 -141 -6 -143 -4 -10 9 118 245 134 249 10 3 73 5
141 6 92 1 122 -2 122 -11z m-1164 -33 c-1 -8 -5 -17 -9 -21 -3 -4 -5 3 -2 15
2 11 0 21 -6 21 -5 0 -9 5 -9 11 0 8 4 8 14 0 8 -7 13 -18 12 -26z m1537 -2
c48 -8 87 -19 87 -24 0 -5 -24 -56 -52 -114 -38 -76 -57 -104 -68 -100 -8 2
-53 9 -100 15 -47 6 -100 13 -117 16 l-32 5 57 115 57 115 40 -6 c22 -4 79
-13 128 -22z m-939 -115 c-36 -73 -67 -134 -68 -135 -1 -2 -315 -83 -320 -83
-1 0 29 63 67 140 53 111 73 143 93 151 29 11 249 57 277 58 14 1 4 -25 -49
-131z m-664 42 c0 -5 -2 -10 -4 -10 -3 0 -8 5 -11 10 -3 6 -1 10 4 10 6 0 11
-4 11 -10z m2077 -61 c59 -23 112 -45 116 -49 6 -6 -81 -199 -98 -218 -4 -4
-223 83 -231 91 -4 4 97 217 103 217 1 0 51 -19 110 -41z m-1917 -4 c0 -3 -31
-67 -69 -144 l-70 -138 -78 -28 c-43 -16 -118 -46 -167 -67 -49 -21 -93 -38
-98 -38 -4 0 27 69 69 154 l77 155 156 55 c151 53 180 61 180 51z m2405 -236
l103 -61 -54 -112 c-30 -61 -58 -111 -62 -111 -13 0 -212 128 -212 137 0 19
101 208 111 208 7 0 58 -28 114 -61z m-3083 -141 l-77 -161 -184 -89 c-101
-48 -185 -87 -187 -86 -1 2 39 84 89 182 l92 180 165 67 c91 38 168 69 172 69
4 0 -28 -73 -70 -162z m3529 -141 c57 -35 103 -67 101 -70 -38 -88 -110 -226
-118 -226 -8 -1 -192 108 -214 126 -7 6 110 233 120 233 4 0 54 -29 111 -63z
m506 -271 c3 -2 -23 -58 -56 -124 l-61 -121 -86 40 c-71 33 -98 47 -142 75 -2
1 24 56 57 123 l61 120 112 -54 c61 -31 113 -57 115 -59z m311 -121 c61 -22
112 -44 112 -48 0 -8 -107 -237 -114 -244 -3 -3 -129 41 -219 76 l-27 11 62
125 c35 69 65 124 68 123 3 -2 56 -21 118 -43z m447 -140 c61 -16 111 -29 113
-31 3 -1 -114 -242 -122 -251 -5 -6 -246 62 -246 69 0 23 122 249 133 245 7
-2 62 -17 122 -32z m442 -91 c54 -8 108 -17 120 -20 22 -4 21 -9 -42 -133 -51
-102 -68 -129 -82 -126 -10 2 -65 12 -123 21 -58 9 -108 18 -112 21 -11 6 115
253 129 253 6 0 56 -7 110 -16z m1863 9 c0 -7 -91 -255 -96 -262 -3 -4 -277
-41 -281 -38 -4 5 89 252 99 262 5 6 59 17 121 26 133 19 157 21 157 12z
m-1243 -72 l71 -6 -57 -125 -57 -125 -133 2 c-73 1 -135 4 -137 6 -3 2 21 61
53 131 l58 126 65 -1 c36 -1 97 -4 137 -8z m594 -123 l-57 -133 -133 -8 c-74
-4 -136 -6 -138 -3 -3 3 19 63 48 135 l54 130 75 3 c41 2 105 5 142 6 l66 2
-57 -132z"/>
<path d="M4114 5799 c-3 -6 -2 -15 3 -20 5 -5 9 -1 9 11 0 23 -2 24 -12 9z"/>
<path d="M4076 5703 c-6 -14 -5 -15 5 -6 7 7 10 15 7 18 -3 3 -9 -2 -12 -12z"/>
<path d="M4065 5671 c-3 -5 -2 -12 3 -15 5 -3 9 1 9 9 0 17 -3 19 -12 6z"/>
<path d="M4039 5645 c-1 -3 -2 -8 -3 -12 -1 -5 -5 -15 -10 -23 -7 -12 -6 -13
4 -3 13 12 23 43 14 43 -2 0 -5 -2 -5 -5z"/>
<path d="M3947 5556 c-4 -9 -1 -16 6 -16 8 0 7 -4 -3 -11 -12 -8 -12 -9 5 -7
11 2 20 -2 20 -9 0 -6 3 -14 8 -17 4 -3 5 -3 2 1 -3 3 0 12 7 20 9 11 8 13 -2
11 -7 -2 -19 7 -25 20 -10 19 -14 20 -18 8z"/>
<path d="M3911 5536 c-8 -9 -8 -16 -2 -20 12 -8 1 -45 -13 -45 -9 1 -26 -21
-26 -33 0 -5 5 -8 11 -8 5 0 7 5 4 10 -3 6 -2 10 3 10 6 0 12 -7 16 -15 3 -9
0 -15 -8 -15 -8 0 -19 -13 -25 -30 -12 -35 -22 -40 -14 -7 4 15 -3 9 -22 -18
-30 -42 -44 -95 -21 -76 9 7 16 7 24 -1 8 -8 13 -7 18 5 3 9 11 14 18 10 6 -3
6 -1 -1 8 -15 16 -17 53 -3 44 6 -4 10 -3 9 2 -3 20 2 44 9 39 12 -7 6 -61 -7
-58 -16 3 -14 -3 6 -19 10 -8 14 -9 10 -2 -4 6 -3 14 2 18 6 3 8 12 4 21 -3 8
3 24 13 35 13 15 15 22 6 31 -22 22 -12 32 11 12 22 -19 22 -19 5 1 -14 17
-14 23 -4 37 7 10 16 15 19 11 4 -3 2 -12 -3 -18 -7 -9 -5 -17 7 -26 16 -13
17 -12 5 3 -9 11 -10 18 -2 23 8 5 8 11 1 19 -6 7 -7 17 -3 21 4 5 1 5 -5 1
-7 -4 -14 -2 -14 3 -3 26 -4 30 -10 35 -3 4 -12 0 -18 -8z m19 -55 c-15 -30
-30 -35 -17 -6 7 14 16 25 20 25 4 0 3 -9 -3 -19z m-15 -80 c-3 -6 -11 -8 -17
-5 -6 4 -5 9 3 15 16 10 23 4 14 -10z m-63 -98 c-2 -7 -8 -10 -14 -7 -5 3 -7
13 -4 23 5 12 2 11 -9 -3 -8 -11 -15 -16 -15 -12 0 4 8 18 18 31 l17 23 6 -21
c3 -12 4 -28 1 -34z"/>
<path d="M3919 5373 c-13 -16 -12 -17 4 -4 16 13 21 21 13 21 -2 0 -10 -8 -17
-17z"/>
<path d="M3761 5227 c-13 -21 -12 -21 5 -5 10 10 16 20 13 22 -3 3 -11 -5 -18
-17z"/>
<path d="M3784 5132 c3 -6 2 -13 -4 -17 -5 -3 -10 -1 -10 6 0 7 -3 9 -6 6 -4
-4 -2 -13 4 -20 7 -8 10 -17 7 -20 -3 -4 -2 -4 3 -1 4 3 7 9 7 12 0 4 4 12 8
19 4 6 2 15 -4 19 -7 4 -9 3 -5 -4z"/>
<path d="M3701 5107 c-6 -8 -8 -17 -4 -20 9 -10 -18 -38 -31 -30 -6 3 -8 3 -4
-2 4 -4 2 -15 -5 -23 -6 -8 -13 -23 -13 -34 -1 -10 -3 -20 -4 -23 -1 -3 -3 -8
-5 -12 -1 -5 -5 -16 -8 -25 -4 -10 -9 -25 -12 -34 -3 -8 -9 -13 -14 -10 -5 4
-8 -2 -7 -11 2 -9 -3 -28 -10 -42 -7 -13 -12 -27 -10 -30 1 -3 -8 -17 -21 -31
-20 -20 -23 -21 -17 -5 4 12 3 17 -2 12 -5 -5 -9 -23 -9 -40 0 -21 -4 -31 -13
-29 -8 1 -11 -2 -6 -9 4 -6 7 -31 7 -56 0 -24 3 -46 7 -48 4 -3 5 14 3 38 -3
31 -1 38 6 27 7 -9 11 -10 11 -3 0 6 -4 15 -10 18 -5 3 -10 11 -10 17 0 7 15
-1 32 -18 29 -25 30 -26 10 -3 -15 17 -20 29 -13 34 6 3 11 12 11 18 0 7 -4 6
-10 -3 -8 -12 -10 -11 -10 7 0 21 13 25 37 10 8 -5 11 -1 8 12 -2 11 3 25 11
31 7 7 12 16 9 20 -2 4 4 15 14 24 15 14 18 27 15 64 -3 33 -2 43 5 32 5 -8 7
-18 4 -24 -3 -5 -1 -6 5 -2 6 4 8 14 5 24 -6 15 -5 15 10 3 14 -11 15 -17 5
-28 -15 -18 -20 -45 -7 -37 5 3 7 9 4 14 -3 4 2 13 10 20 8 7 13 16 10 20 -3
5 -1 11 4 15 6 3 7 13 4 23 -6 15 -5 16 13 2 17 -14 18 -13 7 1 -7 9 -10 19
-6 22 3 4 7 17 7 29 1 13 4 28 7 33 3 6 6 25 8 43 3 33 -9 41 -28 19z m15 -29
c-2 -18 -5 -33 -6 -33 -1 0 -3 -12 -4 -27 -2 -15 -8 -34 -15 -42 -7 -8 -10
-20 -7 -25 4 -5 2 -12 -3 -15 -17 -11 -20 10 -6 37 8 15 11 27 8 27 -3 0 0 6
6 13 8 10 7 14 -3 14 -8 0 -13 -8 -11 -19 2 -10 1 -16 -3 -14 -5 3 -9 -5 -9
-16 -1 -12 -6 -25 -12 -31 -10 -10 -10 10 0 28 4 6 5 17 4 27 -2 9 10 29 26
44 16 15 29 36 29 46 0 10 2 18 6 18 3 0 3 -15 0 -32z m-89 -208 c-2 -10 -11
-28 -22 -40 -10 -11 -14 -20 -10 -20 4 0 1 -8 -8 -18 -10 -10 -15 -21 -12 -24
3 -2 -2 -5 -10 -5 -19 0 -19 2 2 23 10 9 18 23 19 31 2 8 6 22 10 31 7 16 9
23 13 37 4 15 20 2 18 -15z"/>
<path d="M3689 5043 c-13 -16 -12 -17 4 -4 16 13 21 21 13 21 -2 0 -10 -8 -17
-17z"/>
<path d="M3637 4832 c-10 -10 -15 -21 -12 -24 3 -3 -1 -11 -10 -18 -8 -7 -15
-17 -15 -23 0 -6 6 -3 14 8 7 11 13 23 12 26 0 4 8 16 18 28 11 12 17 21 14
21 -3 0 -12 -8 -21 -18z"/>
<path d="M3567 4715 c-4 -8 -3 -16 1 -19 4 -3 9 4 9 15 2 23 -3 25 -10 4z"/>
<path d="M4050 5815 c-6 -7 -9 -23 -8 -36 2 -16 -2 -23 -10 -21 -8 1 -11 -2
-8 -7 4 -5 2 -13 -4 -16 -8 -5 -8 -11 0 -20 8 -9 8 -15 0 -20 -5 -3 -10 -11
-10 -18 0 -11 34 31 36 46 1 4 2 8 3 10 2 1 5 13 7 26 2 14 11 32 19 41 8 9
15 19 15 22 0 10 -31 4 -40 -7z m11 -18 c-10 -9 -11 -8 -5 6 3 10 9 15 12 12
3 -3 0 -11 -7 -18z m-20 -60 c-6 -8 -7 -18 -3 -22 4 -5 1 -5 -6 -1 -10 6 -10
11 -1 22 6 8 14 14 16 14 3 0 0 -6 -6 -13z"/>
<path d="M3976 5661 c-14 -15 -15 -24 -7 -38 6 -11 11 -13 11 -5 0 8 5 10 13
6 6 -4 9 -4 5 1 -4 4 -4 13 2 19 5 7 5 17 1 24 -6 9 -12 8 -25 -7z m24 -5 c0
-2 -8 -10 -17 -17 -16 -13 -17 -12 -4 4 13 16 21 21 21 13z"/>
<path d="M2349 5695 c-1 -3 -2 -8 -3 -12 -1 -5 -5 -14 -9 -20 -13 -21 -16 -52
-6 -58 5 -4 6 -11 3 -17 -4 -7 -2 -8 5 -4 6 4 8 13 4 19 -11 17 -11 29 1 52
11 22 16 45 10 45 -2 0 -5 -2 -5 -5z"/>
<path d="M2306 5583 c-6 -14 -5 -15 5 -6 7 7 10 15 7 18 -3 3 -9 -2 -12 -12z"/>
<path d="M2283 5555 c0 -8 4 -12 9 -9 5 3 6 10 3 15 -9 13 -12 11 -12 -6z"/>
<path d="M2299 5538 c0 -2 -2 -11 -4 -21 -3 -15 -1 -16 11 -6 7 6 11 15 8 20
-5 9 -13 12 -15 7z"/>
<path d="M2216 5428 c3 -5 10 -6 15 -3 13 9 11 12 -6 12 -8 0 -12 -4 -9 -9z"/>
<path d="M2190 5361 c0 -6 4 -13 10 -16 6 -3 7 1 4 9 -7 18 -14 21 -14 7z"/>
<path d="M2130 5232 c9 -19 30 -23 30 -5 0 4 -3 3 -7 0 -3 -4 -12 1 -20 11
-13 15 -13 15 -3 -6z"/>
<path d="M2108 5218 c9 -9 9 -15 -1 -27 -11 -14 -10 -14 6 -2 13 10 15 17 6
27 -6 8 -14 14 -17 14 -3 0 -1 -5 6 -12z"/>
<path d="M2073 5125 c0 -8 4 -12 9 -9 5 3 6 10 3 15 -9 13 -12 11 -12 -6z"/>
<path d="M2003 5033 c0 -9 4 -10 14 -2 7 6 13 12 13 14 0 1 -6 2 -13 2 -8 0
-14 -6 -14 -14z"/>
<path d="M1973 4973 c0 -9 4 -10 14 -2 7 6 13 12 13 14 0 1 -6 2 -13 2 -8 0
-14 -6 -14 -14z"/>
<path d="M1949 4938 c-5 -18 -6 -38 -1 -34 7 8 12 36 6 36 -2 0 -4 -1 -5 -2z"/>
<path d="M1926 4851 c-3 -5 1 -14 8 -20 10 -9 16 -9 21 -1 4 6 1 9 -7 8 -7 -2
-12 3 -10 10 2 14 -4 16 -12 3z"/>
<path d="M1849 4733 c-13 -16 -12 -17 4 -4 9 7 17 15 17 17 0 8 -8 3 -21 -13z"/>
<path d="M1823 4683 c4 -3 -1 -16 -10 -27 -18 -21 -18 -21 4 -2 20 16 23 36 6
36 -4 0 -3 -3 0 -7z"/>
<path d="M1827 4641 c-10 -14 -10 -14 4 -4 9 7 18 10 21 7 3 -3 8 -1 12 4 9
16 -24 9 -37 -7z"/>
<path d="M1779 4555 c-1 -3 -2 -11 -3 -17 -1 -7 -8 -12 -15 -10 -7 1 -9 -2 -6
-9 9 -13 28 3 31 26 2 13 -4 22 -7 10z"/>
<path d="M1711 4496 c-9 -11 -9 -16 1 -22 7 -4 10 -4 6 1 -4 4 -3 14 3 22 6 7
9 13 6 13 -2 0 -10 -6 -16 -14z"/>
<path d="M1734 4456 c1 -8 5 -18 8 -22 4 -3 5 1 4 10 -1 8 -5 18 -8 22 -4 3
-5 -1 -4 -10z"/>
<path d="M1713 4425 c0 -8 4 -12 8 -9 4 2 10 -2 12 -8 4 -8 6 -9 6 -2 1 6 -5
17 -12 23 -10 8 -14 7 -14 -4z"/>
<path d="M1643 4353 c0 -9 4 -10 14 -2 7 6 13 12 13 14 0 1 -6 2 -13 2 -8 0
-14 -6 -14 -14z"/>
<path d="M2860 3867 c0 -103 -19 -179 -69 -282 -58 -117 -121 -190 -227 -261
-263 -175 -575 -159 -822 43 -61 50 -126 135 -169 221 -26 52 -41 71 -51 67
-113 -43 -352 -151 -356 -161 -2 -6 -14 -67 -25 -135 -70 -420 -32 -871 110
-1286 78 -229 234 -516 403 -738 74 -98 252 -283 366 -380 196 -166 451 -323
664 -407 289 -115 506 -174 721 -198 640 -69 1234 73 1757 421 373 247 691
611 888 1014 130 268 192 468 245 795 4 26 3 26 -138 53 -508 98 -948 254
-1397 496 -147 79 -207 118 -469 301 -303 211 -481 308 -716 390 -214 74 -500
130 -662 130 l-53 0 0 -83z m1020 -285 c40 -21 80 -90 80 -137 0 -17 -10 -51
-22 -75 -70 -134 -279 -91 -295 61 -6 57 28 124 77 150 44 24 115 24 160 1z
m-480 -252 c75 -38 105 -152 60 -224 -46 -75 -142 -99 -221 -54 -74 41 -102
151 -56 219 52 77 137 100 217 59z m917 -76 c92 -42 112 -183 37 -258 -70 -70
-166 -68 -236 5 -61 64 -63 152 -5 215 56 61 126 74 204 38z m-462 -143 c46
-21 100 -72 121 -113 55 -106 3 -252 -110 -310 -48 -25 -144 -28 -196 -6 -40
17 -95 69 -117 112 -21 40 -28 126 -14 169 44 132 197 203 316 148z m-533
-261 c189 -53 159 -328 -36 -332 -120 -2 -204 115 -162 226 20 52 51 83 103
101 47 17 49 17 95 5z m-1172 -101 c155 -19 303 -96 405 -211 67 -77 132 -214
151 -318 67 -371 -208 -722 -591 -755 -107 -9 -221 15 -334 71 -334 165 -457
581 -269 903 18 31 65 88 103 127 102 103 219 162 360 183 84 12 82 12 175 0z
m2119 -59 c43 -22 81 -85 81 -136 0 -53 -40 -117 -90 -142 -148 -76 -295 103
-194 235 48 63 131 80 203 43z m-441 -217 c86 -69 76 -211 -19 -267 -39 -23
-124 -21 -165 5 -90 55 -101 183 -22 256 56 53 145 55 206 6z m1581 -28 c154
-37 315 -163 385 -303 52 -103 69 -186 63 -302 -8 -156 -62 -276 -172 -384
-143 -141 -364 -200 -559 -150 -349 90 -534 481 -385 812 112 250 399 390 668
327z m-1780 -795 c234 -38 432 -222 485 -450 60 -251 -39 -508 -247 -648 -104
-69 -178 -93 -307 -99 -120 -6 -193 8 -298 57 -138 65 -232 166 -294 317 -31
74 -32 85 -33 213 0 161 18 226 94 343 60 92 134 157 236 208 119 59 240 79
364 59z"/>
</g>
</svg>
