<?xml version="1.0" standalone="no"?>
<!DOCTYPE svg PUBLIC "-//W3C//DTD SVG 20010904//EN"
 "http://www.w3.org/TR/2001/REC-SVG-20010904/DTD/svg10.dtd">
<svg version="1.0" xmlns="http://www.w3.org/2000/svg"
 width="500.000000pt" height="500.000000pt" viewBox="0 0 500.000000 500.000000"
 preserveAspectRatio="xMidYMid meet">

<g transform="translate(0.000000,500.000000) scale(0.100000,-0.100000)"
fill="#000000" stroke="none">
<path d="M1719 4075 c-58 -14 -163 -57 -186 -76 -10 -9 -3 -22 36 -65 71 -77
94 -145 89 -254 -5 -98 -27 -154 -89 -224 -44 -50 -138 -102 -202 -111 l-43
-7 0 -71 c0 -58 -6 -82 -26 -123 -47 -91 -141 -153 -230 -154 -40 0 -48 -3
-48 -19 0 -10 -13 -44 -29 -76 l-30 -58 39 -44 c94 -107 94 -284 0 -403 l-32
-40 51 -46 c88 -79 140 -220 122 -331 -6 -39 -5 -53 4 -53 42 0 122 -36 162
-73 230 -210 -7 -574 -291 -448 -79 34 -142 117 -153 200 l-5 36 -102 0 c-94
0 -106 2 -167 32 -40 20 -85 53 -113 82 -54 59 -52 64 -36 -114 27 -287 104
-497 230 -626 55 -56 75 -70 124 -84 154 -45 297 24 723 351 549 421 837 554
1198 554 360 0 658 -138 1196 -552 309 -239 423 -311 548 -349 159 -47 278 8
379 175 248 410 203 1168 -111 1880 -173 391 -400 699 -667 905 -217 167 -398
228 -557 188 -66 -17 -194 -78 -281 -133 -82 -53 -220 -120 -297 -144 -96 -30
-237 -37 -341 -17 -111 21 -196 56 -347 144 -175 102 -235 130 -309 148 -76
18 -135 18 -209 0z m297 -706 c72 -34 88 -71 92 -216 l4 -123 111 0 c92 0 118
-4 153 -21 110 -53 117 -197 14 -266 -30 -21 -45 -23 -155 -23 l-123 0 -3
-122 c-4 -138 -18 -174 -79 -215 -43 -29 -112 -31 -158 -3 -57 35 -69 67 -77
211 l-7 129 -121 0 c-137 0 -170 12 -207 72 -25 42 -26 119 -2 160 34 58 73
72 212 78 l125 5 1 121 c1 142 15 178 87 213 53 26 80 26 133 0z m1530 0 c145
-70 95 -289 -65 -289 -88 0 -151 64 -151 154 0 63 28 108 83 135 53 26 80 26
133 0z m-360 -360 c56 -27 84 -72 84 -135 0 -90 -63 -154 -150 -154 -88 0
-150 64 -150 155 0 72 39 124 108 145 43 13 63 11 108 -11z m720 0 c110 -53
117 -197 14 -266 -67 -46 -166 -22 -211 49 -31 50 -23 137 17 179 56 60 111
72 180 38z m-360 -360 c145 -70 95 -289 -65 -289 -90 0 -151 64 -151 157 0 47
4 58 36 93 55 60 111 73 180 39z"/>
<path d="M1237 3906 c-208 -75 -194 -369 21 -426 132 -34 272 76 272 215 0 62
-21 109 -69 156 -66 64 -144 83 -224 55z"/>
<path d="M684 3701 c-27 -12 -72 -66 -80 -97 -16 -64 17 -136 77 -166 66 -34
144 -13 187 52 20 29 23 44 20 88 -4 45 -10 59 -41 89 -30 31 -43 37 -89 40
-29 1 -62 -1 -74 -6z"/>
<path d="M970 3388 c-95 -64 -89 -199 11 -250 63 -33 126 -19 179 37 21 23 25
36 25 91 0 60 -2 66 -37 100 -31 32 -45 38 -90 42 -44 3 -59 0 -88 -20z"/>
<path d="M21 3204 c-26 -33 -26 -55 -4 -82 30 -35 68 -38 97 -8 31 30 33 69 6
96 -29 29 -74 26 -99 -6z"/>
<path d="M744 3056 c-58 -49 -20 -146 56 -146 75 0 113 98 56 146 -35 31 -77
31 -112 0z"/>
<path d="M229 3031 c-51 -52 -33 -128 37 -157 63 -26 134 24 134 94 0 50 -46
92 -100 92 -33 0 -48 -6 -71 -29z"/>
<path d="M694 2770 c-44 -14 -102 -77 -115 -124 -41 -151 106 -280 248 -221
50 21 72 42 94 90 54 117 -20 249 -147 260 -27 2 -63 0 -80 -5z"/>
<path d="M245 2718 c-92 -51 -108 -153 -34 -224 27 -25 38 -29 90 -29 57 0 63
2 94 37 44 47 53 95 29 145 -34 69 -121 103 -179 71z"/>
<path d="M715 2270 c-57 -10 -88 -24 -129 -61 -106 -92 -114 -255 -18 -361 54
-60 104 -82 187 -82 143 0 243 95 253 240 11 162 -132 291 -293 264z"/>
<path d="M1052 1760 c-57 -35 -77 -111 -45 -177 22 -46 67 -73 123 -73 56 0
101 27 123 73 21 44 21 80 0 124 -33 70 -131 96 -201 53z"/>
</g>
</svg>
