<?xml version="1.0" standalone="no"?>
<!DOCTYPE svg PUBLIC "-//W3C//DTD SVG 20010904//EN"
 "http://www.w3.org/TR/2001/REC-SVG-20010904/DTD/svg10.dtd">
<svg version="1.0" xmlns="http://www.w3.org/2000/svg"
 width="512.000000pt" height="512.000000pt" viewBox="0 0 512.000000 512.000000"
 preserveAspectRatio="xMidYMid meet">

<g transform="translate(0.000000,512.000000) scale(0.100000,-0.100000)"
fill="#000000" stroke="none">
<path d="M983 4607 l-413 -412 0 -1723 c0 -1709 0 -1722 20 -1742 18 -18 33
-20 155 -20 l134 0 3 -142 c3 -141 3 -143 28 -155 37 -19 2583 -19 2620 0 16
8 26 23 28 40 7 61 97 57 -1294 57 l-1274 0 0 100 0 100 1115 0 c1102 0 1115
0 1135 20 24 24 25 38 4 68 l-15 22 -1275 0 -1274 0 0 1650 0 1650 383 0 c285
0 386 3 395 12 9 9 12 110 12 395 l0 383 1120 0 1120 0 0 -1698 c0 -1307 3
-1701 12 -1710 17 -17 64 -15 82 4 14 14 16 169 16 1555 l0 1539 100 0 100 0
0 -1683 c0 -1296 3 -1686 12 -1695 20 -20 65 -14 82 10 14 20 16 200 16 1723
0 1349 -3 1705 -13 1725 -12 25 -14 25 -155 28 l-142 3 0 134 c0 122 -2 137
-20 155 -20 20 -33 20 -1212 20 l-1193 0 -412 -413z m377 -82 l0 -295 -297 0
-298 0 295 295 c162 162 296 295 297 295 2 0 3 -133 3 -295z"/>
<path d="M1816 4654 c-20 -19 -20 -44 -2 -70 14 -18 35 -19 738 -22 398 -2
742 0 766 3 52 8 73 39 54 80 l-12 25 -764 0 c-682 0 -766 -2 -780 -16z"/>
<path d="M1820 4350 c-24 -24 -26 -53 -4 -74 14 -14 98 -16 774 -16 827 0 790
-3 790 55 0 57 22 55 -792 55 -735 0 -748 0 -768 -20z"/>
<path d="M2530 4047 c-28 -14 -37 -46 -20 -76 11 -21 17 -21 430 -21 413 0
419 0 430 21 6 11 10 30 8 42 -6 44 -29 47 -438 47 -290 0 -391 -3 -410 -13z"/>
<path d="M2542 3743 c-32 -6 -49 -45 -34 -78 l12 -25 419 0 c405 0 421 1 431
19 5 11 10 28 10 39 0 46 -10 47 -424 48 -215 1 -401 0 -414 -3z"/>
<path d="M2322 3389 c-397 -35 -761 -285 -941 -646 -85 -170 -121 -328 -121
-530 0 -562 383 -1029 942 -1149 60 -13 126 -18 238 -18 133 0 170 4 260 26
126 32 241 79 346 142 l77 47 52 -51 c51 -50 53 -55 57 -114 2 -33 12 -79 23
-101 12 -27 153 -175 418 -442 451 -453 445 -448 577 -447 89 1 152 26 213 87
60 60 82 117 82 212 -1 62 -6 90 -23 125 -32 64 -790 830 -852 861 -27 13 -72
24 -112 27 -64 4 -68 6 -117 56 l-51 52 49 82 c233 389 225 876 -21 1254 -238
364 -655 565 -1096 527z m310 -123 c363 -70 670 -329 802 -679 48 -127 61
-211 60 -377 -1 -133 -4 -169 -26 -251 -53 -198 -144 -357 -282 -495 -327
-327 -825 -406 -1240 -197 -129 65 -281 195 -377 323 -56 76 -144 259 -169
355 -31 114 -38 347 -16 469 80 423 405 757 826 847 106 22 318 25 422 5z
m754 -1896 l62 -60 63 0 c42 0 76 -7 103 -20 27 -12 174 -153 423 -402 342
-344 382 -388 393 -428 32 -118 -42 -230 -163 -246 -90 -13 -113 6 -524 418
-250 250 -377 385 -387 410 -9 21 -16 66 -16 100 l0 62 -62 63 -62 63 49 50
c27 27 51 50 54 50 2 0 32 -27 67 -60z"/>
<path d="M2345 3069 c-363 -37 -661 -299 -746 -656 -18 -74 -20 -110 -17 -228
4 -124 8 -151 37 -235 127 -375 472 -610 864 -587 374 22 674 266 779 634 30
105 32 322 4 428 -21 82 -81 215 -125 279 -176 255 -485 397 -796 365z m311
-139 c125 -40 227 -103 315 -197 149 -156 218 -343 206 -558 -21 -382 -320
-681 -702 -702 -140 -8 -240 13 -374 79 -91 44 -116 62 -190 137 -152 152
-211 288 -218 501 -6 153 9 227 72 355 50 103 109 179 192 248 69 57 185 119
268 142 126 37 309 35 431 -5z"/>
<path d="M2100 2550 c-11 -11 -20 -28 -20 -37 0 -9 62 -79 137 -155 l137 -138
-137 -138 c-140 -142 -154 -164 -119 -195 39 -36 61 -23 202 118 l135 135 135
-135 c137 -137 166 -155 198 -123 32 32 14 61 -118 193 -71 71 -130 134 -130
140 0 6 59 69 130 140 113 113 130 134 130 162 0 33 -21 53 -56 53 -10 0 -80
-62 -156 -137 l-138 -137 -138 137 c-75 75 -145 137 -155 137 -9 0 -26 -9 -37
-20z"/>
</g>
</svg>
